<svg width="32" height="32" viewBox="0 0 32 32" fill="none" xmlns="http://www.w3.org/2000/svg">
  <!-- Stylized sturgeon fish icon for Sturgeon AI -->
  <path d="M28 16C28 16 26 12 23 11C20 10 18 10 16 10C14 10 10 10 8 12C6 14 4 16 4 16C4 16 6 18 8 20C10 22 14 22 16 22C18 22 20 22 23 21C26 20 28 16 28 16Z" fill="#2563EB" stroke="#1E40AF" stroke-width="1.5" stroke-linejoin="round"/>
  <circle cx="20" cy="15" r="1.5" fill="#FFFFFF"/>
  <path d="M8 12L6 10M8 20L6 22" stroke="#1E40AF" stroke-width="1.5" stroke-linecap="round"/>
  <path d="M16 10L16 6M14 8L16 6L18 8" stroke="#2563EB" stroke-width="1.5" stroke-linecap="round" stroke-linejoin="round"/>
</svg>
